<svg width="332" height="67" viewBox="0 0 332 67" fill="none" xmlns="http://www.w3.org/2000/svg">
<path d="M84.3011 34.5284L80.8381 35.5085C80.6203 34.9313 80.299 34.3705 79.8743 33.826C79.4605 33.2706 78.8942 32.8132 78.1754 32.4538C77.4567 32.0945 76.5365 31.9148 75.4148 31.9148C73.8793 31.9148 72.5997 32.2687 71.576 32.9766C70.5632 33.6735 70.0568 34.5611 70.0568 35.6392C70.0568 36.5975 70.4053 37.3544 71.1023 37.9098C71.7992 38.4652 72.8883 38.928 74.3693 39.2983L78.0938 40.2131C80.3371 40.7576 82.0088 41.5907 83.1087 42.7124C84.2086 43.8232 84.7585 45.2552 84.7585 47.0085C84.7585 48.446 84.3447 49.7311 83.517 50.8636C82.7003 51.9962 81.5568 52.8892 80.0866 53.5426C78.6165 54.196 76.9067 54.5227 74.9574 54.5227C72.3982 54.5227 70.2801 53.9673 68.603 52.8565C66.9259 51.7457 65.8641 50.1231 65.4176 47.9886L69.0767 47.0739C69.4252 48.4242 70.084 49.437 71.0533 50.1122C72.0334 50.7874 73.313 51.125 74.892 51.125C76.6889 51.125 78.1155 50.7438 79.1719 49.9815C80.2391 49.2083 80.7727 48.2827 80.7727 47.2045C80.7727 46.3333 80.4678 45.6037 79.858 45.0156C79.2481 44.4167 78.3116 43.9702 77.0483 43.6761L72.8665 42.696C70.5687 42.1515 68.8807 41.3075 67.8026 40.1641C66.7353 39.0097 66.2017 37.5668 66.2017 35.8352C66.2017 34.4195 66.5992 33.1671 67.3942 32.0781C68.2 30.9891 69.2945 30.1342 70.6776 29.5135C72.0715 28.8928 73.6506 28.5824 75.4148 28.5824C77.8977 28.5824 79.8471 29.1269 81.2628 30.2159C82.6894 31.3049 83.7022 32.7424 84.3011 34.5284ZM99.6335 28.9091V32.1761H86.6307V28.9091H99.6335ZM90.4205 22.8977H94.2756V46.8125C94.2756 47.9015 94.4335 48.7183 94.7493 49.2628C95.076 49.7964 95.4898 50.1558 95.9908 50.3409C96.5026 50.5152 97.0417 50.6023 97.608 50.6023C98.0327 50.6023 98.3812 50.5805 98.6534 50.5369C98.9257 50.4825 99.1435 50.4389 99.3068 50.4062L100.091 53.8693C99.8296 53.9673 99.4647 54.0653 98.9965 54.1634C98.5282 54.2723 97.9347 54.3267 97.2159 54.3267C96.1269 54.3267 95.0597 54.0926 94.0142 53.6243C92.9797 53.156 92.1193 52.4427 91.4333 51.4844C90.7581 50.526 90.4205 49.3172 90.4205 47.858V22.8977ZM110.976 54.5881C109.386 54.5881 107.943 54.2886 106.647 53.6896C105.351 53.0798 104.322 52.2031 103.56 51.0597C102.798 49.9053 102.416 48.5114 102.416 46.8778C102.416 45.4403 102.7 44.2751 103.266 43.3821C103.832 42.4782 104.589 41.7704 105.536 41.2585C106.484 40.7467 107.529 40.3655 108.673 40.1151C109.827 39.8537 110.987 39.6468 112.152 39.4943C113.677 39.2983 114.913 39.1513 115.86 39.0533C116.819 38.9444 117.516 38.7647 117.951 38.5142C118.398 38.2637 118.621 37.8281 118.621 37.2074V37.0767C118.621 35.465 118.18 34.2126 117.298 33.3196C116.427 32.4266 115.103 31.9801 113.328 31.9801C111.488 31.9801 110.045 32.383 109 33.1889C107.954 33.9948 107.219 34.8551 106.794 35.7699L103.135 34.4631C103.789 32.9384 104.66 31.7514 105.749 30.902C106.849 30.0417 108.047 29.4427 109.343 29.1051C110.649 28.7566 111.934 28.5824 113.198 28.5824C114.004 28.5824 114.929 28.6804 115.975 28.8764C117.031 29.0616 118.049 29.4482 119.029 30.0362C120.02 30.6243 120.843 31.5118 121.496 32.6989C122.149 33.8859 122.476 35.4759 122.476 37.4688V54H118.621V50.6023H118.425C118.164 51.1468 117.728 51.7294 117.118 52.3501C116.508 52.9709 115.697 53.4991 114.684 53.9347C113.671 54.3703 112.435 54.5881 110.976 54.5881ZM111.564 51.125C113.089 51.125 114.374 50.8255 115.419 50.2266C116.476 49.6276 117.271 48.8544 117.804 47.907C118.349 46.9595 118.621 45.9631 118.621 44.9176V41.3892C118.458 41.5852 118.098 41.7649 117.543 41.9283C116.998 42.0807 116.367 42.2169 115.648 42.3366C114.94 42.4455 114.249 42.5436 113.573 42.6307C112.909 42.7069 112.37 42.7723 111.956 42.8267C110.954 42.9574 110.018 43.1697 109.147 43.4638C108.286 43.7469 107.589 44.1771 107.056 44.7543C106.533 45.3205 106.272 46.0937 106.272 47.0739C106.272 48.4134 106.767 49.4261 107.758 50.1122C108.76 50.7874 110.029 51.125 111.564 51.125ZM138.846 28.9091V32.1761H125.32V28.9091H138.846ZM129.371 54V25.446C129.371 24.0085 129.709 22.8106 130.384 21.8523C131.059 20.8939 131.936 20.1752 133.014 19.696C134.092 19.2169 135.23 18.9773 136.428 18.9773C137.376 18.9773 138.149 19.0535 138.748 19.206C139.347 19.3584 139.793 19.5 140.087 19.6307L138.976 22.9631C138.78 22.8977 138.508 22.816 138.16 22.718C137.822 22.62 137.376 22.571 136.82 22.571C135.546 22.571 134.626 22.8923 134.06 23.5348C133.504 24.1773 133.226 25.1193 133.226 26.3608V54H129.371ZM153.582 28.9091V32.1761H140.056V28.9091H153.582ZM144.108 54V25.446C144.108 24.0085 144.445 22.8106 145.12 21.8523C145.795 20.8939 146.672 20.1752 147.75 19.696C148.828 19.2169 149.966 18.9773 151.164 18.9773C152.112 18.9773 152.885 19.0535 153.484 19.206C154.083 19.3584 154.529 19.5 154.823 19.6307L153.713 22.9631C153.517 22.8977 153.244 22.816 152.896 22.718C152.558 22.62 152.112 22.571 151.556 22.571C150.282 22.571 149.362 22.8923 148.796 23.5348C148.24 24.1773 147.963 25.1193 147.963 26.3608V54H144.108Z" fill="#212325"/>
<path d="M157.482 42.0957V41.624C157.482 39.8421 157.737 38.2025 158.246 36.7051C158.755 35.1927 159.496 33.8825 160.47 32.7744C161.443 31.6663 162.641 30.8053 164.063 30.1914C165.486 29.5625 167.118 29.248 168.96 29.248C170.802 29.248 172.441 29.5625 173.879 30.1914C175.316 30.8053 176.522 31.6663 177.495 32.7744C178.483 33.8825 179.232 35.1927 179.741 36.7051C180.25 38.2025 180.505 39.8421 180.505 41.624V42.0957C180.505 43.8626 180.25 45.5023 179.741 47.0146C179.232 48.512 178.483 49.8223 177.495 50.9453C176.522 52.0534 175.324 52.9144 173.901 53.5283C172.479 54.1423 170.847 54.4492 169.005 54.4492C167.163 54.4492 165.523 54.1423 164.086 53.5283C162.663 52.9144 161.458 52.0534 160.47 50.9453C159.496 49.8223 158.755 48.512 158.246 47.0146C157.737 45.5023 157.482 43.8626 157.482 42.0957ZM163.951 41.624V42.0957C163.951 43.1139 164.041 44.0648 164.221 44.9482C164.4 45.8317 164.685 46.6104 165.074 47.2842C165.479 47.943 166.003 48.4596 166.646 48.834C167.29 49.2083 168.076 49.3955 169.005 49.3955C169.903 49.3955 170.674 49.2083 171.318 48.834C171.962 48.4596 172.479 47.943 172.868 47.2842C173.257 46.6104 173.542 45.8317 173.722 44.9482C173.916 44.0648 174.014 43.1139 174.014 42.0957V41.624C174.014 40.6357 173.916 39.7074 173.722 38.8389C173.542 37.9554 173.25 37.1768 172.846 36.5029C172.456 35.8141 171.94 35.2751 171.296 34.8857C170.652 34.4964 169.873 34.3018 168.96 34.3018C168.047 34.3018 167.268 34.4964 166.624 34.8857C165.995 35.2751 165.479 35.8141 165.074 36.5029C164.685 37.1768 164.4 37.9554 164.221 38.8389C164.041 39.7074 163.951 40.6357 163.951 41.624ZM191.007 49.2832L196.397 29.6973H203.158L194.96 54H190.872L191.007 49.2832ZM187.301 29.6973L192.714 49.3057L192.826 54H188.716L180.517 29.6973H187.301ZM215.547 54.4492C213.66 54.4492 211.968 54.1497 210.47 53.5508C208.973 52.9368 207.7 52.0908 206.652 51.0127C205.619 49.9346 204.825 48.6842 204.271 47.2617C203.717 45.8242 203.44 44.2969 203.44 42.6797V41.7812C203.44 39.9395 203.702 38.2549 204.226 36.7275C204.75 35.2002 205.499 33.875 206.472 32.752C207.461 31.6289 208.659 30.7679 210.066 30.1689C211.474 29.555 213.061 29.248 214.828 29.248C216.55 29.248 218.077 29.5326 219.41 30.1016C220.743 30.6706 221.858 31.4792 222.757 32.5273C223.67 33.5755 224.359 34.8333 224.823 36.3008C225.287 37.7533 225.519 39.3704 225.519 41.1523V43.8477H206.203V39.5352H219.163V39.041C219.163 38.1426 218.998 37.3415 218.669 36.6377C218.354 35.9189 217.875 35.3499 217.231 34.9307C216.587 34.5114 215.764 34.3018 214.761 34.3018C213.907 34.3018 213.173 34.4889 212.559 34.8633C211.945 35.2376 211.444 35.7617 211.054 36.4355C210.68 37.1094 210.396 37.903 210.201 38.8164C210.021 39.7148 209.931 40.7031 209.931 41.7812V42.6797C209.931 43.653 210.066 44.5514 210.336 45.375C210.62 46.1986 211.017 46.9098 211.526 47.5088C212.05 48.1077 212.679 48.5719 213.413 48.9014C214.162 49.2308 215.008 49.3955 215.951 49.3955C217.119 49.3955 218.205 49.1709 219.208 48.7217C220.226 48.2575 221.102 47.5612 221.836 46.6328L224.98 50.0469C224.471 50.7806 223.775 51.4844 222.891 52.1582C222.023 52.832 220.975 53.3861 219.747 53.8203C218.519 54.2396 217.119 54.4492 215.547 54.4492ZM234.292 34.998V54H227.823V29.6973H233.91L234.292 34.998ZM241.614 29.54L241.502 35.5371C241.187 35.4922 240.805 35.4548 240.356 35.4248C239.922 35.3799 239.525 35.3574 239.166 35.3574C238.252 35.3574 237.459 35.4772 236.785 35.7168C236.126 35.9414 235.572 36.2783 235.123 36.7275C234.688 37.1768 234.359 37.7233 234.134 38.3672C233.925 39.0111 233.805 39.7448 233.775 40.5684L232.472 40.1641C232.472 38.5918 232.63 37.1468 232.944 35.8291C233.258 34.4964 233.715 33.3359 234.314 32.3477C234.928 31.3594 235.677 30.5957 236.56 30.0566C237.444 29.5176 238.454 29.248 239.592 29.248C239.952 29.248 240.319 29.278 240.693 29.3379C241.067 29.3828 241.374 29.4502 241.614 29.54ZM254.292 54H247.778V27.833C247.778 25.9313 248.175 24.3291 248.969 23.0264C249.762 21.7087 250.908 20.7129 252.405 20.0391C253.902 19.3652 255.707 19.0283 257.818 19.0283C258.702 19.0283 259.802 19.0732 261.12 19.1631C262.453 19.238 263.808 19.3353 265.185 19.4551C266.578 19.5599 267.798 19.6722 268.846 19.792L266.151 24.8906C264.803 24.651 263.508 24.4639 262.265 24.3291C261.023 24.1943 259.84 24.127 258.717 24.127C257.758 24.127 256.95 24.2692 256.291 24.5537C255.632 24.8382 255.13 25.2575 254.786 25.8115C254.456 26.3506 254.292 27.0244 254.292 27.833V54ZM262.378 54V19.792H268.846V54H262.378ZM259.143 29.6973V34.2793H244.162V29.6973H259.143ZM274.606 42.0957V41.624C274.606 39.8421 274.861 38.2025 275.37 36.7051C275.879 35.1927 276.62 33.8825 277.594 32.7744C278.567 31.6663 279.765 30.8053 281.187 30.1914C282.61 29.5625 284.242 29.248 286.084 29.248C287.926 29.248 289.565 29.5625 291.003 30.1914C292.44 30.8053 293.646 31.6663 294.619 32.7744C295.607 33.8825 296.356 35.1927 296.865 36.7051C297.374 38.2025 297.629 39.8421 297.629 41.624V42.0957C297.629 43.8626 297.374 45.5023 296.865 47.0146C296.356 48.512 295.607 49.8223 294.619 50.9453C293.646 52.0534 292.448 52.9144 291.025 53.5283C289.603 54.1423 287.971 54.4492 286.129 54.4492C284.287 54.4492 282.647 54.1423 281.21 53.5283C279.787 52.9144 278.582 52.0534 277.594 50.9453C276.62 49.8223 275.879 48.512 275.37 47.0146C274.861 45.5023 274.606 43.8626 274.606 42.0957ZM281.075 41.624V42.0957C281.075 43.1139 281.165 44.0648 281.345 44.9482C281.524 45.8317 281.809 46.6104 282.198 47.2842C282.602 47.943 283.127 48.4596 283.77 48.834C284.414 49.2083 285.2 49.3955 286.129 49.3955C287.027 49.3955 287.798 49.2083 288.442 48.834C289.086 48.4596 289.603 47.943 289.992 47.2842C290.381 46.6104 290.666 45.8317 290.846 44.9482C291.04 44.0648 291.138 43.1139 291.138 42.0957V41.624C291.138 40.6357 291.04 39.7074 290.846 38.8389C290.666 37.9554 290.374 37.1768 289.97 36.5029C289.58 35.8141 289.064 35.2751 288.42 34.8857C287.776 34.4964 286.997 34.3018 286.084 34.3018C285.17 34.3018 284.392 34.4964 283.748 34.8857C283.119 35.2751 282.602 35.8141 282.198 36.5029C281.809 37.1768 281.524 37.9554 281.345 38.8389C281.165 39.7074 281.075 40.6357 281.075 41.624ZM307.165 47.7109L312.219 29.6973H316.329L315.004 36.7725L309.95 54H306.513L307.165 47.7109ZM304.604 29.6973L308.22 47.6885L308.557 54H304.514L298.36 29.6973H304.604ZM320.956 47.3965L324.482 29.6973H330.749L324.594 54H320.574L320.956 47.3965ZM316.89 29.6973L321.922 47.5762L322.618 54H319.159L314.105 36.7949L312.825 29.6973H316.89Z" fill="#212325"/>
<path d="M3 43V64H52V43" stroke="#BCBBBC" stroke-width="6"/>
<path d="M24.5 54C22.567 54 21 52.433 21 50.5V50.5C21 48.567 22.567 47 24.5 47L44 47L44 54L24.5 54Z" fill="#F48023"/>
<circle cx="15.5" cy="50.5" r="3.5" transform="rotate(-90 15.5 50.5)" fill="#F48023"/>
<path d="M24.5 43C22.567 43 21 41.433 21 39.5V39.5C21 37.567 22.567 36 24.5 36L44 36L44 43L24.5 43Z" fill="#F48023"/>
<circle cx="15.5" cy="39.5" r="3.5" transform="rotate(-90 15.5 39.5)" fill="#F48023"/>
<path d="M24.3808 29.6552C22.4663 29.3889 21.1301 27.621 21.3963 25.7064V25.7064C21.6626 23.7918 23.4305 22.4556 25.3451 22.7219L44.6592 25.408L43.6949 32.3413L24.3808 29.6552Z" fill="#F48023"/>
<circle cx="15.9488" cy="24.9488" r="3.5" transform="rotate(-82.0824 15.9488 24.9488)" fill="#F48023"/>
<path d="M29.8253 12.3122C28.1513 11.3457 27.5777 9.20513 28.5442 7.53111V7.53111C29.5107 5.85708 31.6513 5.28352 33.3253 6.25002L50.2128 16L46.7128 22.0622L29.8253 12.3122Z" fill="#F48023"/>
<circle cx="23.7811" cy="4.78111" r="3.5" transform="rotate(-60 23.7811 4.78111)" fill="#F48023"/>
</svg>
