<svg width="55" height="67" viewBox="0 0 55 67" fill="none" xmlns="http://www.w3.org/2000/svg">
<path d="M3 43V64H52V43" stroke="#BCBBBC" stroke-width="6"/>
<path d="M24.5 54C22.567 54 21 52.433 21 50.5V50.5C21 48.567 22.567 47 24.5 47L44 47L44 54L24.5 54Z" fill="#F48023"/>
<circle cx="15.5" cy="50.5" r="3.5" transform="rotate(-90 15.5 50.5)" fill="#F48023"/>
<path d="M24.5 43C22.567 43 21 41.433 21 39.5V39.5C21 37.567 22.567 36 24.5 36L44 36L44 43L24.5 43Z" fill="#F48023"/>
<circle cx="15.5" cy="39.5" r="3.5" transform="rotate(-90 15.5 39.5)" fill="#F48023"/>
<path d="M24.3808 29.6552C22.4663 29.3889 21.1301 27.621 21.3963 25.7064V25.7064C21.6626 23.7918 23.4305 22.4556 25.3451 22.7219L44.6592 25.408L43.6949 32.3413L24.3808 29.6552Z" fill="#F48023"/>
<circle cx="15.9488" cy="24.9488" r="3.5" transform="rotate(-82.0824 15.9488 24.9488)" fill="#F48023"/>
<path d="M29.8253 12.3122C28.1513 11.3457 27.5777 9.20513 28.5442 7.53111V7.53111C29.5107 5.85708 31.6513 5.28352 33.3253 6.25002L50.2128 16L46.7128 22.0622L29.8253 12.3122Z" fill="#F48023"/>
<circle cx="23.7811" cy="4.78111" r="3.5" transform="rotate(-60 23.7811 4.78111)" fill="#F48023"/>
</svg>
